<?xml version="1.0" encoding="UTF-8"?>
<svg version="1.1" xmlns="http://www.w3.org/2000/svg" width="1254" height="1254">
<path d="M0 0 C413.82 0 827.64 0 1254 0 C1254 413.82 1254 827.64 1254 1254 C840.18 1254 426.36 1254 0 1254 C0 840.18 0 426.36 0 0 Z " fill="#FDFDFD" transform="translate(0,0)"/>
<path d="M0 0 C0.69158203 0.18191895 1.38316406 0.36383789 2.09570312 0.55126953 C22.97293122 6.12949738 41.59375921 15.95300375 58 30 C58.83144531 30.70898438 59.66289063 31.41796875 60.51953125 32.1484375 C86.27722805 54.70125958 104.06798504 87.42455493 107.84326172 121.62133789 C108.18598734 126.82254624 108.18592074 132.03346279 108.18530273 137.24389648 C108.18748415 139.2975759 108.20567893 141.35071236 108.22460938 143.40429688 C108.25811062 151.15074432 107.75572918 158.44458856 106 166 C105.72800781 167.216875 105.45601562 168.43375 105.17578125 169.6875 C97.64122266 198.59838544 84.3779704 223.31698977 65 246 C64.37480469 246.73734375 63.74960937 247.4746875 63.10546875 248.234375 C51.46284389 261.55335413 38.88575539 274.30551476 24.61767578 284.796875 C22.98089563 286.01420863 21.37675821 287.26530982 19.77734375 288.53125 C11.81350116 294.82078632 3.52450339 300.50018081 -5 306 C-5.61681641 306.40186523 -6.23363281 306.80373047 -6.86914062 307.21777344 C-22.92677269 317.65103071 -39.85269642 326.72405913 -57.08007812 335.06884766 C-58.37517597 335.69696352 -59.6681097 336.3295586 -60.95898438 336.96630859 C-76.80673414 344.77765048 -93.28840026 351.11982977 -109.96484375 356.9296875 C-113.66356648 358.23399899 -117.3299143 359.61761718 -121 361 C-133.01286923 365.49538188 -145.13737259 369.06319655 -157.53515625 372.34033203 C-160.76531973 373.20482309 -163.97680326 374.12854733 -167.1875 375.0625 C-224.36711259 391.40906369 -283.65753987 401.21371726 -342.8677063 406.28315735 C-347.39208142 406.67216756 -351.91150934 407.08539873 -356.42822266 407.55566406 C-388.92055005 410.93787236 -421.23754842 411.35665654 -453.875 411.3125 C-454.93784462 411.31137711 -456.00068924 411.31025421 -457.09574127 411.30909729 C-464.269652 411.30002452 -471.44336546 411.27430559 -478.6171875 411.23828125 C-479.54675011 411.23468157 -480.47631271 411.23108189 -481.43404388 411.22737312 C-492.33068009 411.17947904 -503.13666087 410.89109138 -514 410 C-511.31533364 404.74252838 -508.09791219 400.70833608 -504.12109375 396.359375 C-501.38775293 393.31897379 -498.86672483 390.136827 -496.328125 386.93359375 C-489.11727778 377.8474423 -481.88075986 368.82363981 -474.03125 360.27734375 C-471.98275178 357.98066209 -470.08121022 355.61284608 -468.1875 353.1875 C-464.0016627 347.87148662 -459.42633199 342.96843931 -454.8125 338.02734375 C-452.64199746 335.70149852 -450.51879736 333.34400008 -448.4375 330.9375 C-445.09632805 327.07604823 -441.64413496 323.3196821 -438.18725586 319.56225586 C-435.27195596 316.39202282 -432.37609236 313.20596675 -429.5 310 C-415.31334597 294.21162696 -415.31334597 294.21162696 -408.71875 287.74951172 C-406.98730595 285.98707875 -405.37014046 284.1646505 -403.7578125 282.29296875 C-400.13512586 278.13030752 -396.40845519 274.07910662 -392.625 270.0625 C-391.60321655 268.97594116 -391.60321655 268.97594116 -390.56079102 267.86743164 C-384.77689147 261.75140434 -378.85299077 255.78390464 -372.84814453 249.88500977 C-372.18540527 249.23072998 -371.52266602 248.5764502 -370.83984375 247.90234375 C-369.97927368 247.05917603 -369.97927368 247.05917603 -369.10131836 246.19897461 C-367.2713253 244.28393482 -365.54528138 242.32624792 -363.81774902 240.31973267 C-360.29506759 236.28603211 -356.60653951 232.46488696 -352.81469727 228.68530273 C-351.79368423 227.66166122 -351.79368423 227.66166122 -350.75204468 226.61734009 C-348.52598799 224.38692181 -346.2963403 222.16013499 -344.06640625 219.93359375 C-342.50359251 218.37010533 -340.94092715 216.80646858 -339.37840271 215.24269104 C-336.11285875 211.97567781 -332.84552601 208.71046708 -329.5769043 205.4465332 C-325.40319259 201.27851829 -321.23398695 197.10602951 -317.06611729 192.93217373 C-313.84303509 189.70546508 -310.61755894 186.48115792 -307.39137077 183.25755501 C-305.85376687 181.72061461 -304.31689553 180.18294093 -302.78079414 178.64449883 C-300.62784996 176.48899378 -298.47168933 174.33675614 -296.31469727 172.18530273 C-295.69055435 171.55913559 -295.06641144 170.93296844 -294.4233551 170.28782654 C-290.6622037 166.54440208 -286.78155652 162.99317278 -282.75739193 159.53365421 C-280.36665675 157.44728918 -278.13294367 155.22826962 -275.90625 152.96875 C-275.02066406 152.07542969 -274.13507813 151.18210937 -273.22265625 150.26171875 C-272.32417969 149.35035156 -271.42570313 148.43898438 -270.5 147.5 C-265.03481524 141.95640513 -259.57674992 136.50487329 -253.66210938 131.43945312 C-251.67410056 129.71775806 -249.82627681 127.89150098 -248 126 C-245.48044611 123.44130741 -242.91881218 121.01829389 -240.1875 118.6875 C-236.79802115 115.77747592 -233.63576957 112.67813759 -230.5 109.5 C-226.86499221 105.8211523 -223.15986769 102.30009278 -219.2265625 98.94140625 C-216.26046581 96.35517809 -213.38377377 93.67732178 -210.5 91 C-205.73379498 86.58425124 -200.91973626 82.2446438 -196 78 C-194.85510557 77.00171845 -193.7106144 76.00297432 -192.56640625 75.00390625 C-185.1491146 68.53621025 -177.68373294 62.15130306 -170 56 C-169.49210937 55.59104492 -168.98421875 55.18208984 -168.4609375 54.76074219 C-151.12376776 40.8260967 -133.00857667 26.87184821 -112.78515625 17.3671875 C-110.41446181 16.2034525 -108.11752143 14.97483691 -105.80859375 13.6953125 C-73.67451042 -3.99225695 -35.70924488 -9.83216086 0 0 Z " fill="#202936" transform="translate(732,445)"/>
<path d="M0 0 C0.81025635 -0.0000705 1.6205127 -0.00014099 2.45532227 -0.00021362 C25.0888653 0.07513884 44.94602973 4.23515997 65.25 14.4375 C65.92627441 14.7768457 66.60254883 15.11619141 67.29931641 15.46582031 C86.28553549 25.21405566 107.36308088 42.07642508 117.29077148 61.47070312 C119.50006226 65.64581953 119.50006226 65.64581953 123.17089844 68.44799805 C125.45797634 69.1396505 127.71320246 69.62775959 130.0625 70.0625 C131.77102997 70.44651683 133.47805913 70.83726641 135.18359375 71.234375 C136.03550293 71.42837891 136.88741211 71.62238281 137.76513672 71.82226562 C152.97700184 75.58861462 168.48017212 83.10520835 180.25 93.4375 C180.58 94.4275 180.91 95.4175 181.25 96.4375 C180.14785156 96.59605469 179.04570313 96.75460937 177.91015625 96.91796875 C147.64837329 101.47422963 120.63919913 113.6869658 101.55859375 138.65039062 C97.88729809 143.76677075 94.51675077 149.05596485 91.25 154.4375 C90.62222656 155.45972656 89.99445313 156.48195313 89.34765625 157.53515625 C85.97251269 163.36651115 83.66305239 169.404248 81.5234375 175.78515625 C80.52105561 178.6600859 79.43237331 181.42430454 78.26171875 184.23046875 C76.21976625 189.29571434 74.85589878 194.35975753 73.6875 199.6875 C73.37171997 201.1108667 73.37171997 201.1108667 73.04956055 202.56298828 C69.70487991 218.144086 68.0570912 233.88145705 66.89575195 249.75927734 C66.78880005 251.19907959 66.78880005 251.19907959 66.6796875 252.66796875 C66.59050049 253.94256958 66.59050049 253.94256958 66.49951172 255.24291992 C66.25 257.4375 66.25 257.4375 65.25 260.4375 C64.99006036 264.08026527 64.80719417 267.71736773 64.64453125 271.36523438 C64.35073855 277.23602289 64.35073855 277.23602289 63.25 279.4375 C62.92363281 281.45917363 62.64222083 283.48818019 62.3828125 285.51953125 C62.13724609 287.38448242 62.13724609 287.38448242 61.88671875 289.28710938 C61.55115838 291.88578111 61.2177494 294.48473174 60.88671875 297.08398438 C59.92511537 304.35564408 58.63984248 311.39849145 56.89746094 318.52246094 C56.33326109 321.06263673 55.9792588 323.47122898 55.7578125 326.05859375 C55.26405809 331.40841058 53.69116672 336.37881639 52.125 341.5 C51.47982781 343.64694291 50.83531403 345.79408378 50.19140625 347.94140625 C49.70051514 349.56973389 49.70051514 349.56973389 49.19970703 351.23095703 C48.31526516 354.21714201 47.47396045 357.21085611 46.65234375 360.21484375 C36.14439496 398.35153558 20.48378681 439.13686955 -2.75 471.4375 C-3.96307035 467.79828895 -3.41430168 466.36339934 -2.421875 462.6953125 C-2.11636719 461.54546875 -1.81085938 460.395625 -1.49609375 459.2109375 C-1.00302734 457.40496094 -1.00302734 457.40496094 -0.5 455.5625 C3.16967511 441.91070453 6.4252857 428.36814444 8.55761719 414.38916016 C8.87590267 412.30659376 9.20305269 410.22555618 9.53125 408.14453125 C10.59679377 401.30173287 11.52695559 394.48937419 12.01708984 387.57861328 C12.25 385.4375 12.25 385.4375 13.25 382.4375 C13.36138264 380.88889924 13.41880689 379.33610608 13.44287109 377.78369141 C13.45870743 376.83543991 13.47454376 375.88718842 13.49085999 374.91020203 C13.50161057 373.88022598 13.51236115 372.85024994 13.5234375 371.7890625 C13.54216164 370.18083366 13.54216164 370.18083366 13.56126404 368.54011536 C13.77620789 345.61941581 13.71428928 323.80595847 8.25 301.4375 C7.88264015 299.74669462 7.51789646 298.05531788 7.15625 296.36328125 C2.61426757 276.26294447 -6.00038062 256.95066861 -16.75 239.4375 C-17.41644531 238.344375 -18.08289063 237.25125 -18.76953125 236.125 C-23.76461269 228.31191946 -29.66509768 221.40347415 -35.75 214.4375 C-36.67619141 213.32568359 -36.67619141 213.32568359 -37.62109375 212.19140625 C-65.91931123 178.46427415 -110.78994064 160.59737519 -153.75 156.4375 C-158.87888821 156.13504649 -163.9878446 156.05709481 -169.125 156.0625 C-170.14734238 156.06082321 -170.14734238 156.06082321 -171.19033813 156.05911255 C-184.63292022 156.06985708 -197.57562475 157.74798783 -210.75 160.4375 C-212.41662197 160.77105674 -214.08327639 161.10445149 -215.75 161.4375 C-211.47363562 154.61696948 -206.6147199 148.34605948 -201.61328125 142.0546875 C-198.92637368 138.67412187 -196.30332806 135.24813717 -193.6875 131.8125 C-189.65436955 126.53650527 -185.45913536 121.41528215 -181.1796875 116.3359375 C-178.855384 113.56321531 -176.58147027 110.75554492 -174.3125 107.9375 C-170.16162608 102.8462511 -165.76866343 98.02126122 -161.3046875 93.20703125 C-159.24886278 90.97831607 -157.23383043 88.72982081 -155.25 86.4375 C-143.25038048 72.65911335 -130.77654326 58.78195041 -116.35546875 47.4921875 C-114.5709473 46.08490372 -112.824414 44.62846927 -111.11328125 43.1328125 C-80.14756004 16.0971898 -41.16049451 -0.02580694 0 0 Z " fill="#212A36" transform="translate(860.75,262.5625)"/>
<path d="M0 0 C0.33 0 0.66 0 1 0 C3.53708159 55.95674389 -18.01983547 112.16185367 -52 156 C-52.92619141 157.21236328 -52.92619141 157.21236328 -53.87109375 158.44921875 C-58.07502776 163.83735952 -62.56327688 168.90554741 -67.23168945 173.89038086 C-69.18150081 175.97767665 -71.02469475 178.03417527 -72.69921875 180.3515625 C-73.12847656 180.89554688 -73.55773437 181.43953125 -74 182 C-74.66 182 -75.32 182 -76 182 C-76.19722656 182.53238281 -76.39445313 183.06476563 -76.59765625 183.61328125 C-78.64024522 187.08966526 -81.46658537 189.49464159 -84.4375 192.1875 C-85.06930176 192.76556396 -85.70110352 193.34362793 -86.35205078 193.93920898 C-91.74086533 198.83460467 -97.25920009 203.52049434 -103 208 C-103.55284668 208.43602539 -104.10569336 208.87205078 -104.67529297 209.32128906 C-121.60711804 222.61727612 -139.94122095 234.01520357 -159 244 C-159.90975586 244.47679199 -160.81951172 244.95358398 -161.75683594 245.44482422 C-177.80686095 253.79158798 -194.16296467 260.98700444 -211.11425781 267.29174805 C-212.96558266 267.98707345 -214.80716589 268.70816137 -216.6484375 269.4296875 C-225.17603079 272.737035 -233.71118024 275.43903247 -242.546875 277.79296875 C-245.32644521 278.5343863 -248.08270906 279.3165889 -250.828125 280.17578125 C-261.81873867 283.60481901 -272.98787733 286.12171752 -284.2253418 288.58935547 C-284.88252701 288.73414841 -285.53971222 288.87894135 -286.21681213 289.02812195 C-288.02045055 289.42452394 -289.82489725 289.81724305 -291.62939453 290.2097168 C-294.0061354 290.76697525 -296.36754236 291.39172799 -298.71435547 292.06396484 C-303.2617601 293.35945818 -307.81263583 293.80100613 -312.5 294.33984375 C-316.26750151 294.82718671 -319.93300509 295.62796752 -323.64453125 296.43359375 C-333.55843692 298.51302576 -343.61017381 299.25430233 -353.6875 300.125 C-356.54165941 300.37717085 -359.3955765 300.63169381 -362.2492218 300.88961792 C-364.00848196 301.0480783 -365.7680674 301.20298028 -367.52799988 301.35379028 C-368.32015396 301.42411469 -369.11230804 301.49443909 -369.9284668 301.56689453 C-370.62046677 301.62668488 -371.31246674 301.68647522 -372.0254364 301.74807739 C-374.0754817 302.00963025 -375.99955248 302.48877703 -378 303 C-379.69921529 303.1328823 -381.40206237 303.22296619 -383.10546875 303.28125 C-384.08966797 303.31863281 -385.07386719 303.35601563 -386.08789062 303.39453125 C-387.11076172 303.42933594 -388.13363281 303.46414063 -389.1875 303.5 C-397.1696259 303.74167889 -397.1696259 303.74167889 -405.109375 304.52734375 C-409.54184701 305.07127245 -413.95205091 305.04844173 -418.41015625 305.03515625 C-420.80949813 305.04284869 -423.2088223 305.05293486 -425.6081543 305.06323242 C-427.23190435 305.06274787 -428.85570211 305.04991967 -430.47924805 305.02416992 C-442.54282885 304.85370761 -450.88824908 306.93777746 -461.30514526 313.03012085 C-463.59981221 314.34324202 -465.96701563 315.45035488 -468.375 316.5390625 C-469.14424805 316.88888184 -469.91349609 317.23870117 -470.70605469 317.59912109 C-471.46305664 317.93766113 -472.22005859 318.27620117 -473 318.625 C-473.83176758 318.99834473 -474.66353516 319.37168945 -475.52050781 319.75634766 C-483.23177987 323.17621879 -491.06543567 326.14147792 -499 329 C-500.83691406 329.69222656 -500.83691406 329.69222656 -502.7109375 330.3984375 C-527.22936327 339.60759598 -552.02801631 346.5413453 -577.5625 352.25 C-578.30723572 352.41694366 -579.05197144 352.58388733 -579.8192749 352.75588989 C-589.26999818 354.86387491 -598.73883285 356.73070458 -608.28393555 358.35961914 C-612.43497607 359.07495843 -616.56962921 359.85838279 -620.703125 360.66796875 C-623.16423325 361.0237412 -625.5167086 361.05723899 -628 361 C-626.66000502 357.993182 -625.20154709 356.00237391 -622.8125 353.75 C-619.65234338 350.68106439 -616.74203572 347.48038835 -613.86328125 344.1484375 C-606.96913068 336.19920729 -599.80898501 328.48106721 -592.64550781 320.77490234 C-591.03620533 319.03905233 -589.43597702 317.29516684 -587.8359375 315.55078125 C-578.15243334 305.06758208 -568.0815131 294.97312457 -558 284.875 C-557.27213287 284.14454468 -556.54426575 283.41408936 -555.79434204 282.66149902 C-553.67835123 280.53958124 -551.55858812 278.42150879 -549.4375 276.3046875 C-548.80768723 275.67289581 -548.17787445 275.04110413 -547.52897644 274.39016724 C-543.73758894 270.61812243 -539.83075472 267.03571944 -535.77233887 263.55215454 C-533.21880299 261.31585404 -530.87167751 258.92882636 -528.5 256.5 C-524.84288824 252.79322143 -521.11035429 249.24694509 -517.1484375 245.8671875 C-514.96689114 243.97122539 -512.84419445 242.01853363 -510.72583008 240.05249023 C-505.36557387 235.07845151 -499.88808411 230.35233408 -494.1796875 225.77734375 C-491.96611041 224.03354816 -491.96611041 224.03354816 -490 222 C-487.79321289 221.65283203 -487.79321289 221.65283203 -484.97265625 221.5078125 C-483.35339233 221.41342896 -483.35339233 221.41342896 -481.70141602 221.31713867 C-480.50057373 221.25373291 -479.29973145 221.19032715 -478.0625 221.125 C-475.40588213 220.96133171 -472.74973563 220.79435603 -470.09375 220.62109375 C-469.37768082 220.57465225 -468.66161163 220.52821075 -467.92384338 220.48036194 C-424.87853469 217.62087771 -382.5050778 211.92875289 -340.22515869 203.44525146 C-337.03053246 202.80601076 -333.83362985 202.17848115 -330.63671875 201.55078125 C-325.69881976 200.57767859 -320.76542441 199.5843384 -315.83447266 198.57666016 C-312.82217463 197.96382226 -309.80763739 197.36277856 -306.79296875 196.76171875 C-295.45722515 194.47988849 -284.30963382 191.90391011 -273.21630859 188.64160156 C-270.97973054 187.99413217 -268.73626912 187.38001451 -266.48828125 186.7734375 C-232.83257258 177.59899755 -199.61219458 165.75064128 -168 151 C-167.071875 150.57138672 -166.14375 150.14277344 -165.1875 149.70117188 C-132.22534362 134.43068835 -101.16329912 116.0026134 -73 93 C-72.44812012 92.55253418 -71.89624023 92.10506836 -71.32763672 91.64404297 C-56.92905924 79.89772459 -43.28203634 66.79249383 -32 52 C-31.20722656 51.01257813 -30.41445313 50.02515625 -29.59765625 49.0078125 C-17.569183 33.94657884 -8.5760166 17.19999751 0 0 Z " fill="#FAA00D" transform="translate(843,655)"/>
<path d="M0 0 C0.66 0.33 1.32 0.66 2 1 C1.00033203 1.94746094 1.00033203 1.94746094 -0.01953125 2.9140625 C-6.88696009 9.57979063 -12.91665471 16.6012203 -18.67456055 24.24145508 C-19.59105165 25.45742218 -20.51489229 26.66787194 -21.44458008 27.8737793 C-37.16163781 48.42331451 -49.06219189 72.20081111 -59 96 C-59.74513758 97.64804046 -60.4943808 99.29423892 -61.25 100.9375 C-62.44369721 103.61505991 -63.46158784 106.28410736 -64.359375 109.07421875 C-65.48863096 112.51015228 -66.68372592 115.91217663 -67.9375 119.3046875 C-68.27523438 120.21863281 -68.61296875 121.13257813 -68.9609375 122.07421875 C-69.65109877 123.93454067 -70.34378955 125.79392621 -71.0390625 127.65234375 C-73.0866602 133.20899246 -74.79145643 138.7600893 -76.29833984 144.48583984 C-77.24999288 147.89576431 -78.49538605 151.08765775 -79.8125 154.375 C-82.64661146 161.64243326 -84.79896017 169.0334627 -86.88330078 176.54541016 C-88.63400431 182.82407489 -90.67550869 188.91004312 -93 195 C-93.50923709 196.47601207 -94.00939499 197.95519074 -94.5 199.4375 C-94.74492188 200.159375 -94.98984375 200.88125 -95.2421875 201.625 C-95.79587587 203.36027077 -96.29355509 205.11369352 -96.7578125 206.875 C-98.73584846 213.86049636 -101.38360467 218.24171731 -106.49804688 223.38696289 C-108.76929958 225.75905673 -110.76544669 228.17826121 -112.77734375 230.76953125 C-118.75276968 238.13258319 -125.45490788 244.75460902 -132.17382812 251.43457031 C-134.3708284 253.62084876 -136.55692678 255.81761938 -138.7421875 258.015625 C-146.1930282 265.47348369 -153.69460718 272.49579852 -162 279 C-163.10257104 279.9339032 -164.19886115 280.87533907 -165.28515625 281.828125 C-202.85388666 314.58848063 -248.25081206 336.2870812 -294 355 C-294.67773468 355.27730957 -295.35546936 355.55461914 -296.05374146 355.84033203 C-298.09284267 356.67224969 -300.13389095 357.49917319 -302.17578125 358.32421875 C-303.98042847 359.05451294 -303.98042847 359.05451294 -305.8215332 359.79956055 C-308.37408824 360.76360641 -310.78323495 361.53226881 -313.4375 362.125 C-317.06297975 362.86258552 -317.06297975 362.86258552 -320.296875 364.7421875 C-326.50512331 367.91664086 -333.19698876 369.86037777 -339.8125 372 C-342.42404845 372.85151487 -345.03445573 373.70648212 -347.64453125 374.5625 C-348.89484131 374.97242188 -350.14515137 375.38234375 -351.43334961 375.8046875 C-355.54790367 377.18362218 -359.62064011 378.65854483 -363.69165039 380.16015625 C-368.72533667 381.99155559 -373.86630844 383.47803899 -379 385 C-380.26457031 385.37640625 -381.52914062 385.7528125 -382.83203125 386.140625 C-392.60827465 389 -392.60827465 389 -396 389 C-390.63344389 381.97469018 -385.06314267 375.11975212 -379.4765625 368.26953125 C-377.17008727 365.44121437 -374.87364387 362.60523648 -372.5859375 359.76171875 C-367.22461323 353.10743803 -361.81433758 346.57378512 -356.03125 340.27734375 C-353.98275178 337.98066209 -352.08121022 335.61284608 -350.1875 333.1875 C-346.0016627 327.87148662 -341.42633199 322.96843931 -336.8125 318.02734375 C-334.64199746 315.70149852 -332.51879736 313.34400008 -330.4375 310.9375 C-327.09632805 307.07604823 -323.64413496 303.3196821 -320.18725586 299.56225586 C-317.27195596 296.39202282 -314.37609236 293.20596675 -311.5 290 C-297.31334597 274.21162696 -297.31334597 274.21162696 -290.71875 267.74951172 C-288.98730595 265.98707875 -287.37014046 264.1646505 -285.7578125 262.29296875 C-282.13512586 258.13030752 -278.40845519 254.07910662 -274.625 250.0625 C-273.60321655 248.97594116 -273.60321655 248.97594116 -272.56079102 247.86743164 C-266.77689147 241.75140434 -260.85299077 235.78390464 -254.84814453 229.88500977 C-254.18540527 229.23072998 -253.52266602 228.5764502 -252.83984375 227.90234375 C-251.97927368 227.05917603 -251.97927368 227.05917603 -251.10131836 226.19897461 C-249.2713253 224.28393482 -247.54528138 222.32624792 -245.81774902 220.31973267 C-242.29506759 216.28603211 -238.60653951 212.46488696 -234.81469727 208.68530273 C-233.79368423 207.66166122 -233.79368423 207.66166122 -232.75204468 206.61734009 C-230.52598799 204.38692181 -228.2963403 202.16013499 -226.06640625 199.93359375 C-224.50359251 198.37010533 -222.94092715 196.80646858 -221.37840271 195.24269104 C-218.11285875 191.97567781 -214.84552601 188.71046708 -211.5769043 185.4465332 C-207.40319259 181.27851829 -203.23398695 177.10602951 -199.06611729 172.93217373 C-195.84303509 169.70546508 -192.61755894 166.48115792 -189.39137077 163.25755501 C-187.85376687 161.72061461 -186.31689553 160.18294093 -184.78079414 158.64449883 C-182.62784996 156.48899378 -180.47168933 154.33675614 -178.31469727 152.18530273 C-177.69055435 151.55913559 -177.06641144 150.93296844 -176.4233551 150.28782654 C-172.6622037 146.54440208 -168.78155652 142.99317278 -164.75739193 139.53365421 C-162.36665675 137.44728918 -160.13294367 135.22826962 -157.90625 132.96875 C-157.02066406 132.07542969 -156.13507813 131.18210937 -155.22265625 130.26171875 C-154.32417969 129.35035156 -153.42570313 128.43898438 -152.5 127.5 C-147.03481524 121.95640513 -141.57674992 116.50487329 -135.66210938 111.43945312 C-133.67410056 109.71775806 -131.82627681 107.89150098 -130 106 C-127.48044611 103.44130741 -124.91881218 101.01829389 -122.1875 98.6875 C-118.79802115 95.77747592 -115.63576957 92.67813759 -112.5 89.5 C-108.86499221 85.8211523 -105.15986769 82.30009278 -101.2265625 78.94140625 C-98.26046581 76.35517809 -95.38377377 73.67732178 -92.5 71 C-87.73379498 66.58425124 -82.91973626 62.2446438 -78 58 C-76.85510557 57.00171845 -75.7106144 56.00297432 -74.56640625 55.00390625 C-67.1491146 48.53621025 -59.68373294 42.15130306 -52 36 C-51.49210937 35.59104492 -50.98421875 35.18208984 -50.4609375 34.76074219 C-34.66658829 22.06612938 -18.19618585 9.09809293 0 0 Z " fill="#3669E8" transform="translate(614,465)"/>
<path d="M0 0 C-4.93520557 6.99154123 -10.60984178 13.11038917 -16.45068359 19.33740234 C-18.37293405 21.40020184 -20.26467487 23.48943671 -22.15625 25.58032227 C-30.60928931 34.90415978 -39.39066995 43.85993483 -49 52 C-49.99128906 52.86882813 -50.98257812 53.73765625 -52.00390625 54.6328125 C-58.38724769 60.21312438 -64.90126989 65.58373553 -71.625 70.75 C-72.28040771 71.25611816 -72.93581543 71.76223633 -73.61108398 72.28369141 C-83.68056124 79.93861843 -94.4318776 86.61368635 -105.1875 93.25 C-106.29802734 93.94351563 -107.40855469 94.63703125 -108.55273438 95.3515625 C-113.91246198 98.66058416 -119.18096742 101.72161518 -124.99487305 104.15380859 C-128.1842915 105.49978745 -131.2338795 107.10836599 -134.3125 108.6875 C-148.85635146 116.03277368 -163.67339905 122.47840795 -179 128 C-180.83691406 128.69222656 -180.83691406 128.69222656 -182.7109375 129.3984375 C-207.22936327 138.60759598 -232.02801631 145.5413453 -257.5625 151.25 C-258.30723572 151.41694366 -259.05197144 151.58388733 -259.8192749 151.75588989 C-269.26999818 153.86387491 -278.73883285 155.73070458 -288.28393555 157.35961914 C-292.43497607 158.07495843 -296.56962921 158.85838279 -300.703125 159.66796875 C-303.16423325 160.0237412 -305.5167086 160.05723899 -308 160 C-306.66000502 156.993182 -305.20154709 155.00237391 -302.8125 152.75 C-299.65234338 149.68106439 -296.74203572 146.48038835 -293.86328125 143.1484375 C-286.96913068 135.19920729 -279.80898501 127.48106721 -272.64550781 119.77490234 C-271.03620533 118.03905233 -269.43597702 116.29516684 -267.8359375 114.55078125 C-258.15243334 104.06758208 -248.0815131 93.97312457 -238 83.875 C-237.27213287 83.14454468 -236.54426575 82.41408936 -235.79434204 81.66149902 C-233.67835123 79.53958124 -231.55858812 77.42150879 -229.4375 75.3046875 C-228.80768723 74.67289581 -228.17787445 74.04110413 -227.52897644 73.39016724 C-223.73758894 69.61812243 -219.83075472 66.03571944 -215.77233887 62.55215454 C-213.21880299 60.31585404 -210.87167751 57.92882636 -208.5 55.5 C-204.84288824 51.79322143 -201.11035429 48.24694509 -197.1484375 44.8671875 C-194.96689114 42.97122539 -192.84419445 41.01853363 -190.72583008 39.05249023 C-185.36557387 34.07845151 -179.88808411 29.35233408 -174.1796875 24.77734375 C-171.96611041 23.03354816 -171.96611041 23.03354816 -170 21 C-167.79321289 20.65283203 -167.79321289 20.65283203 -164.97265625 20.5078125 C-163.89314697 20.44489014 -162.8136377 20.38196777 -161.70141602 20.31713867 C-160.50057373 20.25373291 -159.29973145 20.19032715 -158.0625 20.125 C-155.40588213 19.96133171 -152.74973563 19.79435603 -150.09375 19.62109375 C-149.37768082 19.57465225 -148.66161163 19.52821075 -147.92384338 19.48036194 C-107.22902164 16.77701971 -67.02012636 11.70224193 -27.0234375 3.76953125 C-7.33238025 -0.13038612 -7.33238025 -0.13038612 0 0 Z " fill="#E03A1D" transform="translate(523,856)"/>
<path d="M0 0 C0.98908078 3.07714019 1.10785845 4.95338928 0 8 C-0.47469727 8.76199707 -0.94939453 9.52399414 -1.43847656 10.30908203 C-2.95460063 12.92176487 -3.85097664 15.23852734 -4.734375 18.1171875 C-7.2904618 26.04978705 -10.27717514 33.80383615 -13.27099609 41.57910156 C-14.23945483 44.09757731 -15.20001707 46.61896782 -16.16015625 49.140625 C-21.68071901 63.55833194 -27.51213005 77.9088506 -34.875 91.5 C-35.50414307 92.67332886 -35.50414307 92.67332886 -36.14599609 93.87036133 C-37.00884526 95.47470638 -37.87483281 97.07736799 -38.74414062 98.67822266 C-39.94382848 100.89615257 -41.12191837 103.12436565 -42.296875 105.35546875 C-53.68768824 126.71143436 -67.71346053 146.56022099 -83.51098633 164.8659668 C-86.02168973 167.74848806 -86.02168973 167.74848806 -88 171 C-86.68 171.33 -85.36 171.66 -84 172 C-97.11659359 173.3838412 -110.23773257 174.71143033 -123.36686707 175.97111511 C-128.92644112 176.50472457 -134.48454524 177.04528489 -140.0390625 177.62939453 C-172.36067347 181.00504785 -204.53353909 181.35179748 -237 181.3125 C-238.60127054 181.31091574 -238.60127054 181.31091574 -240.23488998 181.30929947 C-247.42752379 181.30040557 -254.61995613 181.27449304 -261.8125 181.23828125 C-262.74734034 181.2346759 -263.68218067 181.23107056 -264.6453495 181.22735596 C-274.8113769 181.18292623 -284.87475531 180.9981463 -295 180 C-294 178 -294 178 -290.6875 176.87890625 C-289.1265896 176.43448276 -287.56390526 175.99626706 -286 175.5625 C-274.75506616 172.32685961 -263.68641255 168.60988755 -252.6015625 164.87133789 C-251.23181972 164.41017378 -249.86202909 163.94915177 -248.4921875 163.48828125 C-247.8333255 163.26603882 -247.1744635 163.04379639 -246.49563599 162.81481934 C-242.84577311 161.59121062 -239.18479555 160.45054975 -235.484375 159.390625 C-231.21719468 158.13827129 -227.34091781 156.43333526 -223.375 154.4375 C-219.00958531 152.24080094 -215.00391766 150.69122217 -210.20654297 149.58862305 C-205.62200645 148.36564036 -201.26439785 146.47115281 -196.875 144.6875 C-195.79750488 144.25163574 -194.72000977 143.81577148 -193.60986328 143.36669922 C-172.77032185 134.87805736 -152.19488808 126.12795563 -132.42626953 115.32421875 C-130.24983748 114.13635726 -128.06311132 112.97123786 -125.87109375 111.8125 C-100.80377559 98.36507726 -77.0503896 81.10375111 -56 62 C-55.12093994 61.20706543 -54.24187988 60.41413086 -53.33618164 59.59716797 C-46.35160151 53.26874906 -39.57177275 46.75809864 -32.90795898 40.09326172 C-31.30795481 38.49546107 -29.70006385 36.90588449 -28.09179688 35.31640625 C-22.35085953 29.60581079 -16.99117995 23.79929702 -11.96923828 17.43676758 C-9.93202264 14.91588371 -7.77990954 12.55040681 -5.5625 10.1875 C-2.65338791 6.97186119 -0.89119926 4.34459638 0 0 Z " fill="#34AA4D" transform="translate(515,675)"/>
<path d="M0 0 C1.32336442 3.97009325 -0.04210935 6.19507647 -1.5625 9.875 C-4.15496417 16.42635075 -6.24755741 23.02296067 -8.125 29.8125 C-10.12160408 37.01237531 -12.33441297 44.01640321 -15 51 C-15.50923709 52.47601207 -16.00939499 53.95519074 -16.5 55.4375 C-16.74492188 56.159375 -16.98984375 56.88125 -17.2421875 57.625 C-17.79587587 59.36027077 -18.29355509 61.11369352 -18.7578125 62.875 C-20.73584846 69.86049636 -23.38360467 74.24171731 -28.49804688 79.38696289 C-30.76929958 81.75905673 -32.76544669 84.17826121 -34.77734375 86.76953125 C-40.75276968 94.13258319 -47.45490788 100.75460902 -54.17382812 107.43457031 C-56.3708284 109.62084876 -58.55692678 111.81761938 -60.7421875 114.015625 C-68.1930282 121.47348369 -75.69460718 128.49579852 -84 135 C-85.10257104 135.9339032 -86.19886115 136.87533907 -87.28515625 137.828125 C-124.29367561 170.09997029 -168.98253849 191.73838621 -214.05981445 210.199646 C-216.10630671 211.04385302 -218.14585644 211.90366206 -220.18554688 212.76416016 C-221.5454114 213.32883964 -222.9054326 213.89314199 -224.265625 214.45703125 C-224.89700378 214.7272258 -225.52838257 214.99742035 -226.17889404 215.27580261 C-230.65956417 217.11347861 -230.65956417 217.11347861 -234 216 C-233.29206299 215.6690332 -232.58412598 215.33806641 -231.85473633 214.99707031 C-194.91345551 197.65576314 -160.8941302 176.49730798 -129 151 C-127.98550781 150.18917969 -126.97101563 149.37835937 -125.92578125 148.54296875 C-111.79679453 137.17394235 -111.79679453 137.17394235 -98.6809082 124.68017578 C-96.98443431 122.98444109 -95.21996045 121.43439262 -93.39453125 119.87890625 C-88.5871414 115.69691712 -84.06476774 111.25632994 -79.5625 106.75 C-78.72211182 105.90953125 -77.88172363 105.0690625 -77.01586914 104.203125 C-72.01451652 99.15552216 -67.32667149 94.06909381 -62.9609375 88.4609375 C-60.78017918 85.72412925 -58.44710744 83.18570152 -56.0625 80.625 C-51.14170091 75.26443766 -46.69643449 69.6063743 -42.34033203 63.78613281 C-40.93263875 61.91023408 -39.51216298 60.04451648 -38.08984375 58.1796875 C-26.90926365 43.47365022 -16.81503444 28.36412797 -7.44287109 12.44238281 C-4.98466032 8.28130996 -2.49157983 4.14115112 0 0 Z " fill="#F8FAFB" transform="translate(536,609)"/>
<path d="M0 0 C2.9375 1.625 2.9375 1.625 5 4 C5.4098559 8.40146276 4.69253306 11.37827948 2.87109375 15.36328125 C0.78396435 20.12746083 -1.12993681 24.90595307 -2.90234375 29.79296875 C-3.1501358 30.47505402 -3.39792786 31.15713928 -3.65322876 31.8598938 C-4.41689558 33.96829231 -5.17720161 36.07788484 -5.9375 38.1875 C-6.44181102 39.57886533 -6.94636761 40.97014168 -7.45117188 42.36132812 C-9.98263073 49.34865921 -12.47872797 56.34752256 -14.94140625 63.359375 C-17.91456205 71.81598545 -20.99755642 80.23066498 -24.10449219 88.63891602 C-25.29785645 91.86861259 -26.48814376 95.09944116 -27.67871094 98.33016968 C-28.26333258 99.91278648 -28.84989105 101.49468929 -29.43847656 103.07583618 C-30.86939381 106.91986348 -32.27648787 110.76909685 -33.6328125 114.64013672 C-33.89505615 115.37461533 -34.1572998 116.10909393 -34.42749023 116.86582947 C-34.91916671 118.24397074 -35.4011325 119.62563178 -35.87133789 121.01124573 C-37.2351058 124.79119669 -38.42339752 127.05209114 -42 129 C-44.9375 129.5 -44.9375 129.5 -48 129 C-50.875 126.875 -50.875 126.875 -53 124 C-53.80761457 118.16828456 -51.51798439 113.20827719 -49.484375 107.85546875 C-48.93375397 106.37064247 -48.93375397 106.37064247 -48.37200928 104.8558197 C-47.1735333 101.62966767 -45.96175951 98.40868333 -44.75 95.1875 C-43.91887857 92.95660585 -43.08880654 90.72532048 -42.25976562 88.49365234 C-40.60714276 84.04665176 -38.95051531 79.60117684 -37.29101562 75.15673828 C-34.55656713 67.8223291 -31.87802869 60.46825712 -29.21688843 53.10699463 C-25.31943328 42.33162865 -21.39305548 31.56666647 -17.4375 20.8125 C-17.03144531 19.70084473 -16.62539063 18.58918945 -16.20703125 17.44384766 C-9.35267696 -1.12877136 -9.35267696 -1.12877136 0 0 Z " fill="#F7F7F8" transform="translate(715,549)"/>
<path d="M0 0 C4.29274509 2.61117322 8.03081329 5.64153452 11.8125 8.9375 C16.93523653 13.35565303 22.2206375 17.49527461 27.625 21.5625 C32.67335059 25.3969407 37.6827531 29.2521874 42.5 33.375 C43.78390625 34.46941406 43.78390625 34.46941406 45.09375 35.5859375 C47.66216928 38.83856683 48.10812416 40.8642508 48 45 C44.71943595 50.14392442 40.123996 53.42666784 35.25 57 C28.31198086 62.18308171 21.58138769 67.55601587 14.97363281 73.15429688 C2.72105827 83.42439152 2.72105827 83.42439152 -3.25 84.6875 C-7.11613263 83.72096684 -8.64748045 82.18282057 -11 79 C-11.390625 76.08203125 -11.390625 76.08203125 -11 73 C-9.3046875 70.83203125 -9.3046875 70.83203125 -6.875 68.8125 C-5.96363281 68.04550781 -5.05226563 67.27851562 -4.11328125 66.48828125 C0.40770823 62.87489317 4.93521902 59.27340367 9.51171875 55.73046875 C13.7284132 52.45496946 17.81169624 49.02739859 21.890625 45.58203125 C24 44 24 44 26 44 C23.53474903 38.98608732 19.92459141 36.18549011 15.625 32.8125 C14.91762695 32.24732666 14.21025391 31.68215332 13.48144531 31.09985352 C7.94209337 26.69061387 2.3288019 22.3781466 -3.328125 18.12109375 C-9.72244898 13.04489796 -9.72244898 13.04489796 -10.53125 10 C-10.47616125 6.47431976 -10.33761458 4.51940704 -8.375 1.5 C-5.24087057 -0.47945017 -3.65649759 -0.58503961 0 0 Z " fill="#F8F8F9" transform="translate(742,571)"/>
<path d="M0 0 C3.32274404 2.45594125 4.77618008 3.9256644 5.625 8 C4.40763439 13.84335492 -1.56927818 17.46025006 -6 21.1875 C-6.55816406 21.65873291 -7.11632812 22.12996582 -7.69140625 22.61547852 C-12.72317808 26.83043168 -17.89660189 30.84154668 -23.125 34.80859375 C-25.78266069 36.83433784 -28.39958897 38.90150654 -31 41 C-29.45141261 45.14530405 -26.74633698 46.97435787 -23.25 49.5625 C-22.07492957 50.44322209 -20.90047202 51.32476238 -19.7265625 52.20703125 C-19.11586914 52.66287598 -18.50517578 53.1187207 -17.87597656 53.58837891 C-13.56877094 56.82943342 -9.34337665 60.17585942 -5.125 63.53125 C-3.29400266 64.97773789 -1.44648771 66.40448975 0.4375 67.78125 C3.66297266 70.22636637 4.90262579 71.5374725 5.75 75.5625 C4.80595787 79.88935975 3.58460177 81.42843786 0 84 C-3.99449418 84.60590642 -5.63882399 84.22813523 -9.0859375 82.05078125 C-10.19434516 81.15269635 -11.29007521 80.23881649 -12.375 79.3125 C-12.97368896 78.82209229 -13.57237793 78.33168457 -14.18920898 77.82641602 C-15.47178558 76.77411758 -16.74924214 75.71555314 -18.02197266 74.65136719 C-20.67397985 72.43732415 -23.35489943 70.25985703 -26.03686523 68.08227539 C-27.38564668 66.98709152 -28.7328215 65.889926 -30.07836914 64.79077148 C-35.44120386 60.41787768 -40.90448733 56.19385023 -46.42578125 52.0234375 C-51.82481208 47.77958626 -51.82481208 47.77958626 -52.46875 44.9140625 C-52.4790625 44.15867187 -52.489375 43.40328125 -52.5 42.625 C-52.5309375 41.87476563 -52.561875 41.12453125 -52.59375 40.3515625 C-50.30801666 31.29885544 -33.89003123 22.04523921 -26.44165039 16.27172852 C-23.23820671 13.78437466 -20.08889176 11.25157442 -16.98828125 8.63671875 C-16.32223877 8.08226074 -15.65619629 7.52780273 -14.9699707 6.95654297 C-13.68641688 5.88535058 -12.41222845 4.80280337 -11.14916992 3.70751953 C-7.41437321 0.61463297 -5.05421405 -0.85676848 0 0 Z " fill="#F9F9FA" transform="translate(643,571)"/>
<path d="M0 0 C4.98218254 3.20217626 8.43131316 7.73762632 11.0625 13 C11.83070817 20.36724229 11.26470063 26.76712699 7.0625 33 C1.39189367 39.31005768 -3.8445121 41.97158595 -12.3125 42.4375 C-18.84364192 42.30439249 -22.78105801 39.99985609 -27.43359375 35.578125 C-32.04049234 30.49276514 -34.54378398 24.81070675 -34.21484375 17.96875 C-33.07788684 9.89795731 -27.60434194 3.79378433 -21.3125 -1 C-14.27000708 -3.08666457 -6.67464671 -3.34863632 0 0 Z " fill="#F9F9F9" transform="translate(893.9375,320)"/>
<path d="M0 0 C0.495 0.99 0.495 0.99 1 2 C-4.29846214 8.24033249 -9.92252719 14.09735126 -15.6953125 19.8984375 C-16.60578339 20.81460846 -17.51625427 21.73077942 -18.45431519 22.67471313 C-20.36689567 24.59770671 -22.28171829 26.51843775 -24.19775391 28.43798828 C-26.64668486 30.8924436 -29.08616604 33.35607658 -31.52366829 35.82187462 C-33.86598059 38.18729286 -36.21884436 40.54212135 -38.5703125 42.8984375 C-39.44124542 43.78171722 -40.31217834 44.66499695 -41.20950317 45.57504272 C-42.02740326 46.38994171 -42.84530334 47.2048407 -43.68798828 48.04443359 C-44.40189728 48.76198822 -45.11580627 49.47954285 -45.85134888 50.21884155 C-48.14056725 52.11652546 -50.19681667 53.05394624 -53 54 C-47.75179943 47.63491433 -41.97528548 41.84677025 -36.1328125 36.03515625 C-35.08741675 34.99162921 -34.04224425 33.94787848 -32.99728394 32.90391541 C-30.2672716 30.17769255 -27.53426807 27.45448819 -24.80059814 24.73193359 C-22.00324846 21.94487541 -19.20878299 19.15492854 -16.4140625 16.36523438 C-10.94550306 10.90734919 -5.47377555 5.45265441 0 0 Z " fill="#3E6FF1" transform="translate(423,630)"/>
<path d="M0 0 C0 0.66 0 1.32 0 2 C-1.59790039 3.27758789 -1.59790039 3.27758789 -3.84765625 4.72265625 C-5.08636475 5.52401001 -5.08636475 5.52401001 -6.35009766 6.34155273 C-7.24519043 6.90946533 -8.1402832 7.47737793 -9.0625 8.0625 C-10.4244751 8.93660522 -10.4244751 8.93660522 -11.81396484 9.82836914 C-19.45257337 14.70780747 -27.19348192 19.39591799 -35 24 C-37.6515525 25.59989644 -40.30099593 27.20319442 -42.94921875 28.80859375 C-43.62597656 29.20175781 -44.30273438 29.59492187 -45 30 C-45.99966797 30.60521484 -45.99966797 30.60521484 -47.01953125 31.22265625 C-49.42973054 32.16867136 -50.60217708 31.85636533 -53 31 C-52.31035156 30.62488281 -51.62070312 30.24976563 -50.91015625 29.86328125 C-49.97042969 29.35152344 -49.03070313 28.83976563 -48.0625 28.3125 C-47.06476563 27.76980469 -46.06703125 27.22710938 -45.0390625 26.66796875 C-41.59605083 24.77829525 -38.18200093 22.8406443 -34.77734375 20.8828125 C-33 20 -33 20 -31 20 C-31 19.34 -31 18.68 -31 18 C-28.89739659 16.85121668 -26.79303461 15.70588808 -24.6875 14.5625 C-24.09259766 14.23701172 -23.49769531 13.91152344 -22.88476562 13.57617188 C-20.27626374 12.16262616 -17.82154101 10.94051367 -15 10 C-14.67 9.01 -14.34 8.02 -14 7 C-12.29296875 5.9375 -12.29296875 5.9375 -10.1875 5 C-6.88961452 3.46609978 -3.51951585 0 0 0 Z " fill="#2D68D6" transform="translate(378,781)"/>
<path d="M0 0 C0.99 0.33 1.98 0.66 3 1 C-0.42241475 5.12444855 -3.95843293 9.086568 -7.6875 12.9375 C-8.43386719 13.70964844 -9.18023437 14.48179687 -9.94921875 15.27734375 C-12 17 -12 17 -15 17 C-15.26167969 17.58523438 -15.52335937 18.17046875 -15.79296875 18.7734375 C-18.30214718 23.40201906 -22.23073025 27.13418715 -26.9375 29.4375 C-27.618125 29.623125 -28.29875 29.80875 -29 30 C-23.47349666 23.25919575 -17.30550441 17.1928871 -11.125 11.0625 C-10.04403726 9.98656273 -8.96330617 8.91039269 -7.8828125 7.83398438 C-5.25787359 5.21996708 -2.62981372 2.60911404 0 0 Z " fill="#EA492F" transform="translate(301,924)"/>
<path d="M0 0 C0.66 0.33 1.32 0.66 2 1 C-8.83826922 9.870345 -20.65417835 17.27564566 -32.625 24.5 C-33.47811768 25.01651123 -34.33123535 25.53302246 -35.21020508 26.06518555 C-36.01997803 26.54898682 -36.82975098 27.03278809 -37.6640625 27.53125 C-38.38029785 27.95986328 -39.0965332 28.38847656 -39.83447266 28.83007812 C-42.19376896 30.1046833 -44.44652511 31.17240377 -47 32 C-47.99 31.67 -48.98 31.34 -50 31 C-48.5839401 30.20724852 -47.16712447 29.41584688 -45.75 28.625 C-44.96109375 28.18414063 -44.1721875 27.74328125 -43.359375 27.2890625 C-41.85288739 26.46598152 -40.32221732 25.68480736 -38.765625 24.9609375 C-36.82249186 24.12150714 -36.82249186 24.12150714 -36 22 C-34.36172646 21.29333538 -32.72092435 20.5919989 -31.06835938 19.91943359 C-27.26641247 18.22938023 -23.78276413 15.99835544 -20.25 13.8125 C-19.46447754 13.32998779 -18.67895508 12.84747559 -17.86962891 12.3503418 C-11.68962516 8.5152871 -5.76886211 4.43465391 0 0 Z " fill="#D83710" transform="translate(447,927)"/>
<path d="M0 0 C0.99 0.33 1.98 0.66 3 1 C-1.58438023 5.69411273 -6.2592218 10.18731358 -11.2421875 14.45703125 C-12.67962714 15.71878383 -14.04022497 17.06759931 -15.375 18.4375 C-17 20 -17 20 -19 20 C-19.2475 20.61875 -19.495 21.2375 -19.75 21.875 C-21.20628639 24.35068687 -22.37812506 24.95125002 -25 26 C-25 23 -25 23 -23.75 21.5012207 C-23.1725 20.98132568 -22.595 20.46143066 -22 19.92578125 C-21.36344482 19.34401123 -20.72688965 18.76224121 -20.07104492 18.1628418 C-19.3876001 17.552229 -18.70415527 16.94161621 -18 16.3125 C-16.62005022 15.05583244 -15.24113595 13.79802681 -13.86328125 12.5390625 C-13.19635254 11.93223633 -12.52942383 11.32541016 -11.84228516 10.70019531 C-8.93370622 8.01594622 -6.16689956 5.20149204 -3.41796875 2.35546875 C-2 1 -2 1 0 0 Z " fill="#4071F7" transform="translate(509,548)"/>
<path d="M0 0 C0.66 0.33 1.32 0.66 2 1 C-2.10440525 5.20738316 -6.44345016 8.89567067 -11.015625 12.578125 C-13.02575242 14.20938024 -15.01521836 15.86639054 -16.984375 17.546875 C-18.41523437 18.76117188 -18.41523437 18.76117188 -19.875 20 C-20.73867188 20.7425 -21.60234375 21.485 -22.4921875 22.25 C-25.09207309 24.06425038 -26.88050839 24.64220885 -30 25 C-26.01550389 20.84562228 -21.7358749 17.22625446 -17.25 13.625 C-16.54423828 13.05499268 -15.83847656 12.48498535 -15.11132812 11.89770508 C-10.11888003 7.87429162 -5.09552229 3.89241286 0 0 Z " fill="#4674F6" transform="translate(581,486)"/>
<path d="M0 0 C0.99 0.33 1.98 0.66 3 1 C1.8717446 2.1282554 0.74312686 3.25614956 -0.38671875 4.3828125 C-1.5402876 5.53917449 -2.68809309 6.70129744 -3.83203125 7.8671875 C-16.16183421 20.36722442 -16.16183421 20.36722442 -23 24 C-23 21 -23 21 -20.65625 18.546875 C-19.6117797 17.60606212 -18.55917191 16.67423047 -17.5 15.75 C-16.95480713 15.26273438 -16.40961426 14.77546875 -15.84790039 14.2734375 C-14.23967032 12.83989653 -12.62182093 11.41813131 -11 10 C-10.18402344 9.28328125 -9.36804688 8.5665625 -8.52734375 7.828125 C-7.22961686 6.69291718 -5.92820147 5.56189374 -4.62109375 4.4375 C-3.0163427 3.01449184 -1.5002349 1.53215479 0 0 Z " fill="#4474F7" transform="translate(539,520)"/>
<path d="M0 0 C-3.09494362 2.06329574 -4.49318782 2.39520861 -8.0859375 2.8515625 C-9.09398437 2.98071045 -10.10203125 3.1098584 -11.140625 3.24291992 C-12.20796875 3.36900635 -13.2753125 3.49509277 -14.375 3.625 C-15.45523437 3.75688721 -16.53546875 3.88877441 -17.6484375 4.0246582 C-25.14349343 4.89566568 -32.45231073 5.39802268 -40 5 C-36.90505638 2.93670426 -35.50681218 2.60479139 -31.9140625 2.1484375 C-30.40199219 1.95471558 -30.40199219 1.95471558 -28.859375 1.75708008 C-27.79203125 1.63099365 -26.7246875 1.50490723 -25.625 1.375 C-24.00464844 1.17716919 -24.00464844 1.17716919 -22.3515625 0.9753418 C-14.85650657 0.10433432 -7.54768927 -0.39802268 0 0 Z " fill="#D53A26" transform="translate(452,869)"/>
<path d="M0 0 C0.81559387 0.00141495 1.63118774 0.0028299 2.47149658 0.00428772 C5.06957712 0.00987322 7.66757063 0.02242304 10.265625 0.03515625 C12.02994667 0.04017313 13.79426969 0.04473571 15.55859375 0.04882812 C19.87763756 0.0598379 24.19661654 0.07709256 28.515625 0.09765625 C28.515625 0.42765625 28.515625 0.75765625 28.515625 1.09765625 C26.8759375 1.31421875 26.8759375 1.31421875 25.203125 1.53515625 C21.58439513 1.98053729 21.58439513 1.98053729 18.515625 3.09765625 C15.77697213 3.16816739 13.06534912 3.1912339 10.328125 3.16015625 C9.57853516 3.15564453 8.82894531 3.15113281 8.05664062 3.14648438 C6.20960117 3.13471979 4.36260287 3.1167849 2.515625 3.09765625 C2.515625 2.43765625 2.515625 1.77765625 2.515625 1.09765625 C1.2575 1.24203125 -0.000625 1.38640625 -1.296875 1.53515625 C-2.35841797 1.65697266 -2.35841797 1.65697266 -3.44140625 1.78125 C-5.67833893 2.0693636 -5.67833893 2.0693636 -8.484375 3.09765625 C-10.671875 2.16015625 -10.671875 2.16015625 -12.484375 1.09765625 C-8.32032736 -0.06896327 -4.2945682 -0.02810438 0 0 Z " fill="#2B3542" transform="translate(851.484375,262.90234375)"/>
<path d="M0 0 C0.66 0.33 1.32 0.66 2 1 C-1.22518228 8.85804081 -10.15183992 14.3849356 -17 19 C-17.66 18.34 -18.32 17.68 -19 17 C-18.32517578 16.41605469 -18.32517578 16.41605469 -17.63671875 15.8203125 C-11.67554768 10.63564668 -5.83242288 5.32851869 0 0 Z " fill="#EA452E" transform="translate(339,889)"/>
<path d="M0 0 C0.99 0.66 1.98 1.32 3 2 C-5.984375 10.984375 -5.984375 10.984375 -7.56054688 12.54101562 C-8.80201956 13.79933326 -9.97841635 15.12125085 -11.140625 16.453125 C-11.75421875 16.96359375 -12.3678125 17.4740625 -13 18 C-14.32 17.67 -15.64 17.34 -17 17 C-11.39 11.39 -5.78 5.78 0 0 Z " fill="#323B48" transform="translate(733,320)"/>
<path d="M0 0 C0.66 0.33 1.32 0.66 2 1 C-1.96 4.96 -5.92 8.92 -10 13 C-10.33 11.68 -10.66 10.36 -11 9 C-12.32 9.33 -13.64 9.66 -15 10 C-12.38221206 7.0447272 -9.32416665 5.24167273 -5.9375 3.25 C-4.87402344 2.61578125 -3.81054688 1.9815625 -2.71484375 1.328125 C-1.81894531 0.88984375 -0.92304687 0.4515625 0 0 Z " fill="#436FEC" transform="translate(614,465)"/>
<path d="M0 0 C0.33 0.99 0.66 1.98 1 3 C-0.9156265 5.08429801 -2.83246061 7.16746303 -4.75 9.25 C-5.28882813 9.83652344 -5.82765625 10.42304687 -6.3828125 11.02734375 C-12.83338878 18.02857898 -12.83338878 18.02857898 -15 20 C-15.66 20 -16.32 20 -17 20 C-15.58261511 16.74792908 -13.87473588 14.68638933 -11.3125 12.25 C-7.30631982 8.35367851 -3.62044379 4.25402145 0 0 Z " fill="#E43C23" transform="translate(250,976)"/>
<path d="M0 0 C0 0.66 0 1.32 0 2 C-0.99 2.33 -1.98 2.66 -3 3 C-3.33 3.66 -3.66 4.32 -4 5 C-12.415 5.495 -12.415 5.495 -21 6 C-20 4 -20 4 -17.05078125 2.9296875 C-15.81714844 2.58164062 -14.58351562 2.23359375 -13.3125 1.875 C-11.48138672 1.34519531 -11.48138672 1.34519531 -9.61328125 0.8046875 C-6.2610498 0.0581365 -3.41640681 -0.1574381 0 0 Z " fill="#21AE4F" transform="translate(241,849)"/>
<path d="M0 0 C0.33 0.99 0.66 1.98 1 3 C-1.24582364 5.27499601 -3.49737904 7.54423584 -5.75 9.8125 C-6.38421875 10.45509766 -7.0184375 11.09769531 -7.671875 11.75976562 C-8.6 12.69272461 -8.6 12.69272461 -9.546875 13.64453125 C-10.11245117 14.21534424 -10.67802734 14.78615723 -11.26074219 15.37426758 C-13.07860831 17.07347736 -14.98495317 18.54275828 -17 20 C-17.66 19.67 -18.32 19.34 -19 19 C-12.73 12.73 -6.46 6.46 0 0 Z " fill="#4575F3" transform="translate(443,610)"/>
<path d="M0 0 C0.99 0.33 1.98 0.66 3 1 C0.96004487 2.89770306 -1.08189835 4.79318945 -3.125 6.6875 C-3.69476563 7.21794922 -4.26453125 7.74839844 -4.8515625 8.29492188 C-8.47648245 11.65209206 -12.17778532 14.86903691 -16 18 C-16.66 17.67 -17.32 17.34 -18 17 C-15.56661391 14.53756523 -13.12759787 12.08078261 -10.6875 9.625 C-9.65206055 8.57699219 -9.65206055 8.57699219 -8.59570312 7.5078125 C-7.92861328 6.8375 -7.26152344 6.1671875 -6.57421875 5.4765625 C-5.96151123 4.85861816 -5.34880371 4.24067383 -4.7175293 3.60400391 C-3 2 -3 2 0 0 Z " fill="#406FF3" transform="translate(475,580)"/>
<path d="M0 0 C0.66 0.33 1.32 0.66 2 1 C-10.48519362 14.6332574 -10.48519362 14.6332574 -17 21 C-17.66 20.67 -18.32 20.34 -19 20 C-16.58444487 17.4156254 -14.1673593 14.83268701 -11.75 12.25 C-11.06808594 11.52039063 -10.38617187 10.79078125 -9.68359375 10.0390625 C-9.01972656 9.33007812 -8.35585938 8.62109375 -7.671875 7.890625 C-7.0644043 7.24125977 -6.45693359 6.59189453 -5.83105469 5.92285156 C-3.91924811 3.91519975 -1.96783318 1.95263756 0 0 Z " fill="#283859" transform="translate(617,464)"/>
<path d="M0 0 C0.99 0.66 1.98 1.32 3 2 C1.08527667 3.29454565 -0.83185518 4.58552944 -2.75 5.875 C-3.81734375 6.59429687 -4.8846875 7.31359375 -5.984375 8.0546875 C-8.29477114 9.54507257 -10.51063964 10.85199401 -13 12 C-13.66 11.34 -14.32 10.68 -15 10 C-10.05 6.7 -5.1 3.4 0 0 Z " fill="#323A47" transform="translate(773,289)"/>
<path d="M0 0 C0.99 0.33 1.98 0.66 3 1 C2.58113525 1.4439209 2.16227051 1.8878418 1.73071289 2.34521484 C-0.16110216 4.35288747 -2.04933561 6.36389391 -3.9375 8.375 C-4.59685547 9.07367187 -5.25621094 9.77234375 -5.93554688 10.4921875 C-6.87817383 11.49765625 -6.87817383 11.49765625 -7.83984375 12.5234375 C-8.42113037 13.14138184 -9.00241699 13.75932617 -9.60131836 14.39599609 C-11.08630662 15.96363687 -11.08630662 15.96363687 -12 18 C-12.99 17.67 -13.98 17.34 -15 17 C-14.33613281 16.27554688 -13.67226562 15.55109375 -12.98828125 14.8046875 C-8.55548526 9.95126123 -4.14115567 5.10742532 0 0 Z " fill="#3674DE" transform="translate(269,792)"/>
<path d="M0 0 C1.23611965 3.70835894 0.60299388 4.71275639 -0.80078125 8.2890625 C-1.20103516 9.31257812 -1.60128906 10.33609375 -2.01367188 11.390625 C-2.44228516 12.45796875 -2.87089844 13.5253125 -3.3125 14.625 C-3.93801758 16.23761719 -3.93801758 16.23761719 -4.57617188 17.8828125 C-7.73721591 25.86860795 -7.73721591 25.86860795 -10 27 C-9.33190093 24.99570278 -8.66316149 22.99161787 -7.9921875 20.98828125 C-7.23822833 18.71749871 -6.49471207 16.4442818 -5.7578125 14.16796875 C-5.3177173 12.82030957 -4.87761311 11.47265333 -4.4375 10.125 C-4.12292847 9.14358032 -4.12292847 9.14358032 -3.80200195 8.14233398 C-2.79591903 5.07642239 -1.80469817 2.70704726 0 0 Z " fill="#3FAE53" transform="translate(502,710)"/>
<path d="M0 0 C0.33 0 0.66 0 1 0 C1.27538262 9.92907332 0.53653322 19.20460071 -1 29 C-1.33 29 -1.66 29 -2 29 C-2 22.73 -2 16.46 -2 10 C-1.34 10 -0.68 10 0 10 C0 6.7 0 3.4 0 0 Z " fill="#0D1420" transform="translate(925,509)"/>
<path d="M0 0 C0.5662207 0.36657715 1.13244141 0.7331543 1.71582031 1.11083984 C-1.54877475 2.48040989 -4.82171146 3.82878469 -8.09667969 5.17333984 C-9.02544922 5.56328125 -9.95421875 5.95322266 -10.91113281 6.35498047 C-11.80380859 6.71914063 -12.69648438 7.08330078 -13.61621094 7.45849609 C-14.43839111 7.79888916 -15.26057129 8.13928223 -16.10766602 8.48999023 C-18.28417969 9.11083984 -18.28417969 9.11083984 -21.28417969 8.11083984 C-18.21334232 6.54330316 -15.12598399 5.01154879 -12.03417969 3.48583984 C-11.16148437 3.03982422 -10.28878906 2.59380859 -9.38964844 2.13427734 C-8.5453125 1.72177734 -7.70097656 1.30927734 -6.83105469 0.88427734 C-6.05600586 0.49675293 -5.28095703 0.10922852 -4.48242188 -0.29003906 C-2.28417969 -0.88916016 -2.28417969 -0.88916016 0 0 Z " fill="#DBECE8" transform="translate(323.2841796875,816.88916015625)"/>
<path d="M0 0 C0 0.33 0 0.66 0 1 C-0.95261719 1.13277344 -1.90523438 1.26554688 -2.88671875 1.40234375 C-4.14097656 1.57894531 -5.39523437 1.75554688 -6.6875 1.9375 C-8.54955078 2.19853516 -8.54955078 2.19853516 -10.44921875 2.46484375 C-12.56923502 2.78436215 -14.68453739 3.14613719 -16.78125 3.59375 C-19.43324947 4.07932737 -21.40876859 3.66631665 -24 3 C-24 2.67 -24 2.34 -24 2 C-21.12679254 1.46692063 -18.2521861 0.94825629 -15.375 0.4375 C-14.56675781 0.28603516 -13.75851562 0.13457031 -12.92578125 -0.02148438 C-8.32436851 -0.82579636 -4.6203988 -1.12893239 0 0 Z " fill="#DA4A3A" transform="translate(491,863)"/>
<path d="M0 0 C0.66 0.66 1.32 1.32 2 2 C0.38405168 4.04119788 -1.2856382 6.04072937 -3 8 C-3.66 8 -4.32 8 -5 8 C-5 8.66 -5 9.32 -5 10 C-5.99 10.66 -6.98 11.32 -8 12 C-8.99 11.67 -9.98 11.34 -11 11 C-7.37 7.37 -3.74 3.74 0 0 Z " fill="#4072F0" transform="translate(354,700)"/>
<path d="M0 0 C-0.33 0.66 -0.66 1.32 -1 2 C-3.46271785 2.53472764 -5.82100856 2.93302822 -8.3125 3.25 C-8.98990234 3.353125 -9.66730469 3.45625 -10.36523438 3.5625 C-14.18936284 4.07088854 -16.75820218 4.23342369 -20 2 C-17.41842632 1.46867611 -14.83538244 0.94965621 -12.25 0.4375 C-11.52039063 0.28603516 -10.79078125 0.13457031 -10.0390625 -0.02148438 C-6.33442927 -0.74557178 -3.60677678 -1.09817231 0 0 Z " fill="#D85647" transform="translate(509,859)"/>
<path d="M0 0 C0.99 0.33 1.98 0.66 3 1 C-0.3 6.61 -3.6 12.22 -7 18 C-8 15 -8 15 -6.34765625 11.42578125 C-5.59612277 10.04907832 -4.8339433 8.67814591 -4.0625 7.3125 C-3.48338867 6.2596582 -3.48338867 6.2596582 -2.89257812 5.18554688 C-1.93738227 3.45204328 -0.96984614 1.72534991 0 0 Z " fill="#2C9C45" transform="translate(470,779)"/>
<path d="M0 0 C-2.94723051 1.96482034 -5.11977826 2.7561217 -8.5 3.6875 C-9.4590625 3.95949219 -10.418125 4.23148438 -11.40625 4.51171875 C-14 5 -14 5 -17 4 C-17 3.34 -17 2.68 -17 2 C-11.19233704 0.4943096 -6.0018137 -0.21824777 0 0 Z " fill="#2C6DC7" transform="translate(257,842)"/>
<path d="M0 0 C0.66 0.33 1.32 0.66 2 1 C0.25156882 2.12743666 -1.4988094 3.2518542 -3.25 4.375 C-4.22453125 5.00148438 -5.1990625 5.62796875 -6.203125 6.2734375 C-12.40142518 10.09976247 -12.40142518 10.09976247 -15.25 9.625 C-15.8275 9.41875 -16.405 9.2125 -17 9 C-13.33996952 6.98763449 -9.67215966 4.9901388 -6 3 C-5.34128906 2.63648438 -4.68257813 2.27296875 -4.00390625 1.8984375 C-2.70079883 1.20301359 -1.35401405 0.59021125 0 0 Z " fill="#2563CF" transform="translate(342,803)"/>
<path d="M0 0 C1.32 1.32 2.64 2.64 4 4 C1.03 8.95 1.03 8.95 -2 14 C-3.21065165 10.36804504 -2.62784815 8.93468371 -1.5625 5.3125 C-1.27503906 4.31863281 -0.98757813 3.32476563 -0.69140625 2.30078125 C-0.46324219 1.54152344 -0.23507812 0.78226563 0 0 Z " fill="#383C45" transform="translate(860,720)"/>
<path d="M0 0 C2 3 2 3 1.828125 5.19140625 C1.63734375 5.97386719 1.4465625 6.75632812 1.25 7.5625 C1.06953125 8.34753906 0.8890625 9.13257813 0.703125 9.94140625 C0 12 0 12 -2 14 C-2.66 13.67 -3.32 13.34 -4 13 C-3.52140759 11.39566191 -3.04210442 9.79153584 -2.5625 8.1875 C-2.29566406 7.29417969 -2.02882813 6.40085937 -1.75390625 5.48046875 C-1.19612127 3.64526945 -0.60655425 1.81966274 0 0 Z " fill="#2D3643" transform="translate(524,649)"/>
<path d="M0 0 C3.4375 0.4375 3.4375 0.4375 6.4375 2.4375 C4.66800388 2.94221197 2.89684777 3.44110685 1.125 3.9375 C-0.35419922 4.35515625 -0.35419922 4.35515625 -1.86328125 4.78125 C-4.5625 5.4375 -4.5625 5.4375 -7.5625 5.4375 C-5.2640643 1.76000288 -4.41482482 0.54217147 0 0 Z " fill="#2274C4" transform="translate(225.5625,848.5625)"/>
<path d="M0 0 C0.98908078 3.07714019 1.10785845 4.95338928 0 8 C-0.474375 8.78375 -0.94875 9.5675 -1.4375 10.375 C-3.1050576 13.17649677 -4.05913298 15.8879014 -5 19 C-5.91574833 15.9093494 -6.40198406 13.21587249 -6 10 C-4.68870078 8.64499081 -3.35308313 7.31328657 -2 6 C-0.73215876 2.86649283 -0.73215876 2.86649283 0 0 Z " fill="#449152" transform="translate(515,675)"/>
<path d="M0 0 C1.42600325 4.27800976 -0.54362936 6.86765922 -2.4375 10.6875 C-2.77587891 11.38939453 -3.11425781 12.09128906 -3.46289062 12.81445312 C-4.29981348 14.54723706 -5.14877393 16.27419752 -6 18 C-6.33 18 -6.66 18 -7 18 C-7 16.35 -7 14.7 -7 13 C-6.34 13 -5.68 13 -5 13 C-4.67 10.69 -4.34 8.38 -4 6 C-3.34 6 -2.68 6 -2 6 C-1.34 4.02 -0.68 2.04 0 0 Z " fill="#141A25" transform="translate(888,672)"/>
<path d="M0 0 C0.33 0 0.66 0 1 0 C0.59060025 6.76215448 -0.56953809 12.67162748 -3 19 C-3.68707555 16.50935112 -4 14.62113708 -4 12 C-3.34 12 -2.68 12 -2 12 C-2 9.36 -2 6.72 -2 4 C-1.34 4 -0.68 4 0 4 C0 2.68 0 1.36 0 0 Z " fill="#0F141D" transform="translate(913,593)"/>
<path d="M0 0 C0.33 0 0.66 0 1 0 C0.67 6.27 0.34 12.54 0 19 C-3.67952474 14.09396701 -3.29124516 12.82490317 -3 7 C-2.01 6.67 -1.02 6.34 0 6 C0 4.02 0 2.04 0 0 Z " fill="#525860" transform="translate(927,501)"/>
<path d="M0 0 C0.99 0 1.98 0 3 0 C2.01 3.63 1.02 7.26 0 11 C-0.99 10.34 -1.98 9.68 -3 9 C-2.01 6.03 -1.02 3.06 0 0 Z " fill="#343C4A" transform="translate(519,665)"/>
<path d="M0 0 C-2.43504509 1.0063655 -4.87270864 2.00526413 -7.3125 3 C-8.34793945 3.42925781 -8.34793945 3.42925781 -9.40429688 3.8671875 C-12.41545674 5.08910744 -14.71886984 6 -18 6 C-18 5.34 -18 4.68 -18 4 C-15.56592995 3.13475247 -13.12856816 2.28257135 -10.6875 1.4375 C-9.99720703 1.19064453 -9.30691406 0.94378906 -8.59570312 0.68945312 C-3.33984375 -1.11328125 -3.33984375 -1.11328125 0 0 Z " fill="#F49112" transform="translate(629,923)"/>
<path d="M0 0 C1.134375 0.020625 2.26875 0.04125 3.4375 0.0625 C0.85338269 1.78524487 -1.11152656 2.75145522 -4 3.75 C-4.76183594 4.02199219 -5.52367187 4.29398438 -6.30859375 4.57421875 C-8.78079721 5.10979142 -10.19233284 4.86695309 -12.5625 4.0625 C-12.2325 3.4025 -11.9025 2.7425 -11.5625 2.0625 C-9.23534 1.68849214 -6.90132138 1.35485267 -4.5625 1.0625 C-3.5625 0.0625 -3.5625 0.0625 0 0 Z " fill="#2972C5" transform="translate(277.5625,833.9375)"/>
<path d="M0 0 C0.66 0.33 1.32 0.66 2 1 C0.60440273 4.3726934 -0.8921588 6.08045102 -4 8 C-5.32588499 8.36182576 -6.65882296 8.69977836 -8 9 C-7.04270084 7.87411986 -6.08412105 6.7493285 -5.125 5.625 C-4.59132813 4.99851562 -4.05765625 4.37203125 -3.5078125 3.7265625 C-2.38567993 2.44163349 -1.20628025 1.20628025 0 0 Z " fill="#467CEE" transform="translate(318,738)"/>
<path d="M0 0 C1.25955231 3.77865693 0.48087189 5.03411786 -0.9375 8.6875 C-1.31777344 9.68136719 -1.69804688 10.67523437 -2.08984375 11.69921875 C-2.39019531 12.45847656 -2.69054687 13.21773437 -3 14 C-3.99 13.34 -4.98 12.68 -6 12 C-4.43358249 7.69235185 -2.31663844 3.93828536 0 0 Z " fill="#CDD6E6" transform="translate(536,609)"/>
<path d="M0 0 C-2.44568622 2.92746298 -2.44568622 2.92746298 -4.90112305 3.2487793 C-5.59761963 3.19117432 -6.29411621 3.13356934 -7.01171875 3.07421875 C-7.76904297 3.01943359 -8.52636719 2.96464844 -9.30664062 2.90820312 C-10.09232422 2.83537109 -10.87800781 2.76253906 -11.6875 2.6875 C-12.48478516 2.62626953 -13.28207031 2.56503906 -14.10351562 2.50195312 C-16.07016953 2.34886031 -18.03528989 2.17629291 -20 2 C-20 1.67 -20 1.34 -20 1 C-13.31184516 0.37577221 -6.71884955 -0.12920865 0 0 Z " fill="#E66853" transform="translate(402,874)"/>
<path d="M0 0 C0.66 0.33 1.32 0.66 2 1 C-0.31 3.31 -2.62 5.62 -5 8 C-5.33 7.34 -5.66 6.68 -6 6 C-6.99 5.67 -7.98 5.34 -9 5 C-7.54735962 4.1361871 -6.0876837 3.28419546 -4.625 2.4375 C-3.40683594 1.72400391 -3.40683594 1.72400391 -2.1640625 0.99609375 C-1.44992187 0.66738281 -0.73578125 0.33867187 0 0 Z " fill="#507BEA" transform="translate(614,465)"/>
<path d="M0 0 C0.66 0 1.32 0 2 0 C1.43179252 5.45479185 0.05362055 9.91059256 -2 15 C-3.23922223 11.28233332 -2.57018942 9.56110463 -1.5625 5.8125 C-1.13130859 4.18248047 -1.13130859 4.18248047 -0.69140625 2.51953125 C-0.46324219 1.68808594 -0.23507812 0.85664063 0 0 Z " fill="#111821" transform="translate(938,439)"/>
<path d="M0 0 C0.99 0.66 1.98 1.32 3 2 C-1.61012242 4.95047835 -4.36529617 6.5497272 -10 6 C-6.87567603 3.47650757 -3.61939504 1.72743854 0 0 Z " fill="#46B35A" transform="translate(389,787)"/>
<path d="M0 0 C0.66 0 1.32 0 2 0 C1.67 3.3 1.34 6.6 1 10 C0.67 9.01 0.34 8.02 0 7 C-2.00016466 5.79117904 -2.00016466 5.79117904 -4 5 C-2.71937515 3.2925002 -1.38232443 1.62626404 0 0 Z " fill="#42B553" transform="translate(508,686)"/>
<path d="M0 0 C0.33 0 0.66 0 1 0 C1.18451025 11.52164009 1.18451025 11.52164009 0 17 C-2.29404844 13.55892734 -2.26293056 12.03160191 -2 8 C-1.67 7.67 -1.34 7.34 -1 7 C-0.63239269 4.67182036 -0.29758419 2.3381615 0 0 Z " fill="#0F1520" transform="translate(927,490)"/>
<path d="M0 0 C0.99 0.33 1.98 0.66 3 1 C0.42215154 3.64752004 -1.91648098 5.94432065 -5 8 C-5.99 7.67 -6.98 7.34 -8 7 C-6.74057614 5.80040625 -5.46704714 4.61560557 -4.1875 3.4375 C-3.12595703 2.44556641 -3.12595703 2.44556641 -2.04296875 1.43359375 C-1.36878906 0.96050781 -0.69460938 0.48742187 0 0 Z " fill="#303846" transform="translate(744,310)"/>
<path d="M0 0 C0.66 0.33 1.32 0.66 2 1 C0.50902342 4.7952131 -1.75700849 6.61042731 -5 9 C-5.66 8.67 -6.32 8.34 -7 8 C-4.69 5.36 -2.38 2.72 0 0 Z " fill="#E93E24" transform="translate(339,889)"/>
<path d="M0 0 C0.66 0.33 1.32 0.66 2 1 C2 1.99 2 2.98 2 4 C-1.37097383 5.49821059 -3.20442119 6 -7 6 C-7 5.34 -7 4.68 -7 4 C-1.7265625 0.77734375 -1.7265625 0.77734375 0 0 Z " fill="#EEF4F6" transform="translate(330,811)"/>
<path d="M0 0 C-3.63 2.31 -7.26 4.62 -11 7 C-11 6.01 -11 5.02 -11 4 C-10.34 4 -9.68 4 -9 4 C-9 3.34 -9 2.68 -9 2 C-3.375 -1.125 -3.375 -1.125 0 0 Z " fill="#3170DC" transform="translate(356,797)"/>
<path d="M0 0 C0.66 0.33 1.32 0.66 2 1 C0.75686537 4.72940389 -0.76985216 5.84656811 -4 8 C-4.99 7.67 -5.98 7.34 -7 7 C-4.66666667 4.66666667 -2.33333333 2.33333333 0 0 Z " fill="#2E3745" transform="translate(755,301)"/>
<path d="M0 0 C-0.1875 1.8125 -0.1875 1.8125 -1 4 C-3.5625 5.75 -3.5625 5.75 -6 7 C-6 4 -6 4 -4.125 1.8125 C-2 0 -2 0 0 0 Z " fill="#4878F7" transform="translate(490,567)"/>
<path d="M0 0 C0.66 0.99 1.32 1.98 2 3 C-0.3125 5.5 -0.3125 5.5 -3 8 C-3.99 8 -4.98 8 -6 8 C-4.02 5.36 -2.04 2.72 0 0 Z " fill="#2D3440" transform="translate(902,350)"/>
<path d="M0 0 C0.33 0.99 0.66 1.98 1 3 C-0.40445835 5.2636564 -2.1967913 7.0208685 -4 9 C-4.66 8.67 -5.32 8.34 -6 8 C-4.55746343 4.63408134 -2.66735273 2.48952921 0 0 Z " fill="#E74C35" transform="translate(250,976)"/>
<path d="M0 0 C0.66 0.99 1.32 1.98 2 3 C0.02 4.32 -1.96 5.64 -4 7 C-4 4 -4 4 -2 1.8125 C-1.34 1.214375 -0.68 0.61625 0 0 Z " fill="#EE462B" transform="translate(319,907)"/>
<path d="M0 0 C0.99 0 1.98 0 3 0 C2.34 2.97 1.68 5.94 1 9 C0.01 8.34 -0.98 7.68 -2 7 C-1.34 4.69 -0.68 2.38 0 0 Z " fill="#38414F" transform="translate(528,636)"/>
<path d="M0 0 C-2.38573379 1.89213369 -4.07175348 3.02391783 -7 4 C-7 3.34 -7 2.68 -7 2 C-7.66 1.67 -8.32 1.34 -9 1 C-5.64919071 -1.10976881 -3.77897651 -1.0497157 0 0 Z " fill="#3B4350" transform="translate(801,277)"/>
<path d="M0 0 C1.32 0.66 2.64 1.32 4 2 C2.58622218 2.36552803 1.16879424 2.71695495 -0.25 3.0625 C-1.03890625 3.25972656 -1.8278125 3.45695313 -2.640625 3.66015625 C-5.10394822 4.01497267 -6.65604132 3.76877544 -9 3 C-4.56923077 0.90769231 -4.56923077 0.90769231 -1.6875 1.375 C-1.130625 1.58125 -0.57375 1.7875 0 2 C0 1.34 0 0.68 0 0 Z " fill="#E66652" transform="translate(244,1009)"/>
<path d="M0 0 C0.99 0.33 1.98 0.66 3 1 C0.68462045 4.72114571 -1.28579473 7.61229661 -5 10 C-3.33333333 6.66666667 -1.66666667 3.33333333 0 0 Z " fill="#D53012" transform="translate(517,858)"/>
<path d="M0 0 C0.33 0.99 0.66 1.98 1 3 C-0.98 4.32 -2.96 5.64 -5 7 C-5.66 6.34 -6.32 5.68 -7 5 C-4.69 3.35 -2.38 1.7 0 0 Z " fill="#44B457" transform="translate(436,756)"/>
<path d="M0 0 C0.99 0.33 1.98 0.66 3 1 C2.34 2.65 1.68 4.3 1 6 C0.34 6 -0.32 6 -1 6 C-1.33 7.32 -1.66 8.64 -2 10 C-3 8 -3 8 -2.44140625 6.0546875 C-2.15136719 5.33539062 -1.86132812 4.61609375 -1.5625 3.875 C-1.27503906 3.15054688 -0.98757813 2.42609375 -0.69140625 1.6796875 C-0.46324219 1.12539063 -0.23507812 0.57109375 0 0 Z " fill="#484D5C" transform="translate(533,620)"/>
<path d="M0 0 C0.66 0.66 1.32 1.32 2 2 C0.02 4.97 0.02 4.97 -2 8 C-2.66 7.01 -3.32 6.02 -4 5 C-2.68 3.35 -1.36 1.7 0 0 Z " fill="#2E3745" transform="translate(681,377)"/>
<path d="M0 0 C0.99 0.66 1.98 1.32 3 2 C1.03533587 3.06775224 -0.96855359 4.06553465 -3 5 C-5 4 -5 4 -6 2 C-3.1875 0.875 -3.1875 0.875 0 0 Z " fill="#333C48" transform="translate(893,359)"/>
<path d="M0 0 C-0.99 1.485 -0.99 1.485 -2 3 C-5.3 2.67 -8.6 2.34 -12 2 C-12 1.67 -12 1.34 -12 1 C-7.93631321 0.22596442 -4.13574827 -0.0984702 0 0 Z " fill="#DF4333" transform="translate(523,856)"/>
<path d="M0 0 C0.66 0.33 1.32 0.66 2 1 C-0.31 3.64 -2.62 6.28 -5 9 C-5.66 8.67 -6.32 8.34 -7 8 C-4.69 5.36 -2.38 2.72 0 0 Z " fill="#1D5DCF" transform="translate(240,827)"/>
<path d="M0 0 C0.66 0.33 1.32 0.66 2 1 C-0.475 4.465 -0.475 4.465 -3 8 C-3.99 7.67 -4.98 7.34 -6 7 C-4.02 4.69 -2.04 2.38 0 0 Z " fill="#2D6CD8" transform="translate(246,819)"/>
<path d="M0 0 C1.36125 0.12375 1.36125 0.12375 2.75 0.25 C2.75 0.58 2.75 0.91 2.75 1.25 C1.1 1.25 -0.55 1.25 -2.25 1.25 C-2.58 2.24 -2.91 3.23 -3.25 4.25 C-3.91 4.25 -4.57 4.25 -5.25 4.25 C-5.58 5.24 -5.91 6.23 -6.25 7.25 C-6.58 6.26 -6.91 5.27 -7.25 4.25 C-4.83923194 1.28290085 -3.90322061 0.30024774 0 0 Z " fill="#E3E4E7" transform="translate(739.25,570.75)"/>
<path d="M0 0 C0.33 0 0.66 0 1 0 C1.05399736 1.45792884 1.09279177 2.91642712 1.125 4.375 C1.14820313 5.18710937 1.17140625 5.99921875 1.1953125 6.8359375 C1 9 1 9 -1 11 C-1.33 9.02 -1.66 7.04 -2 5 C-1.34 5 -0.68 5 0 5 C0 3.35 0 1.7 0 0 Z " fill="#0E131E" transform="translate(920,556)"/>
<path d="M0 0 C2 1 2 1 3 3 C1.02 3.66 -0.96 4.32 -3 5 C-3.66 4.34 -4.32 3.68 -5 3 C-2.625 1.4375 -2.625 1.4375 0 0 Z " fill="#39414C" transform="translate(784,282)"/>
<path d="M0 0 C2.64 0 5.28 0 8 0 C7 2 7 2 4.625 3.125 C2 4 2 4 -1 4 C-0.67 2.68 -0.34 1.36 0 0 Z " fill="#236DC5" transform="translate(282,830)"/>
<path d="M0 0 C-1.39332574 3.36720387 -2.9789286 4.9859524 -6 7 C-6 4 -6 4 -4.125 1.8125 C-2 0 -2 0 0 0 Z " fill="#333A45" transform="translate(976,385)"/>
<path d="M0 0 C0.99 0.66 1.98 1.32 3 2 C-0.465 3.485 -0.465 3.485 -4 5 C-4.66 4.34 -5.32 3.68 -6 3 C-4.02 2.01 -2.04 1.02 0 0 Z " fill="#FBAC23" transform="translate(698,795)"/>
<path d="M0 0 C-1.04874998 2.62187494 -1.64931313 3.79371361 -4.125 5.25 C-4.74375 5.4975 -5.3625 5.745 -6 6 C-6.66 5.34 -7.32 4.68 -8 4 C-2.25 0 -2.25 0 0 0 Z " fill="#FCAE27" transform="translate(748,766)"/>
<path d="M0 0 C0.66 0.33 1.32 0.66 2 1 C0.35 2.98 -1.3 4.96 -3 7 C-3.99 6.34 -4.98 5.68 -6 5 C-4.02 3.35 -2.04 1.7 0 0 Z " fill="#49B55B" transform="translate(453,742)"/>
<path d="M0 0 C0.66 0 1.32 0 2 0 C1.67 1.98 1.34 3.96 1 6 C0.01 6 -0.98 6 -2 6 C-1.34 4.02 -0.68 2.04 0 0 Z " fill="#283140" transform="translate(531,629)"/>
<path d="M0 0 C1 2 1 2 0.25 5.0625 C-0.1625 6.031875 -0.575 7.00125 -1 8 C-1.99 8.33 -2.98 8.66 -4 9 C-2.94124926 5.59687262 -1.99097846 2.98646769 0 0 Z " fill="#303744" transform="translate(703,605)"/>
<path d="M0 0 C1.48199902 0.44909061 2.96055236 0.90956564 4.4375 1.375 C5.26121094 1.63023437 6.08492187 1.88546875 6.93359375 2.1484375 C9 3 9 3 10 5 C9.01 5.33 8.02 5.66 7 6 C5.17578125 5.0390625 5.17578125 5.0390625 3.3125 3.625 C2.68988281 3.16351563 2.06726563 2.70203125 1.42578125 2.2265625 C0.95527344 1.82179688 0.48476563 1.41703125 0 1 C0 0.67 0 0.34 0 0 Z " fill="#29303B" transform="translate(780,439)"/>
<path d="M0 0 C0 0.33 0 0.66 0 1 C-1.1446875 1.2165625 -1.1446875 1.2165625 -2.3125 1.4375 C-5.08172908 1.9632594 -5.08172908 1.9632594 -8 3 C-10.1875 2.0625 -10.1875 2.0625 -12 1 C-8.0186217 -0.3271261 -4.14954773 -0.06915913 0 0 Z " fill="#525963" transform="translate(851,263)"/>
</svg>
